<?xml version="1.0" encoding="UTF-8"?>
<svg xmlns="http://www.w3.org/2000/svg" xmlns:xlink="http://www.w3.org/1999/xlink" width="40px" height="40px" viewBox="0 0 40 40" version="1.1">
<g id="surface1">
<path style=" stroke:none;fill-rule:nonzero;fill:rgb(23.921569%,18.82353%,22.352941%);fill-opacity:1;" d="M 12.105469 24.246094 L 11.011719 26.296875 L 11.191406 26.554688 L 11.660156 26.648438 L 13.179688 26.644531 L 12.105469 24.246094 "/>
<path style=" stroke:none;fill-rule:nonzero;fill:rgb(39.215687%,20.392157%,25.098041%);fill-opacity:1;" d="M 10.949219 24.28125 L 12.113281 24.242188 C 11.738281 24.949219 11.367188 25.652344 10.996094 26.359375 L 10.949219 24.28125 "/>
<path style=" stroke:none;fill-rule:nonzero;fill:rgb(26.666668%,22.352941%,24.705882%);fill-opacity:1;" d="M 12.101562 24.253906 L 13.015625 26.308594 C 13.277344 25.890625 13.539062 25.472656 13.800781 25.054688 L 12.101562 24.253906 "/>
<path style=" stroke:none;fill-rule:nonzero;fill:rgb(23.529412%,16.862746%,23.921569%);fill-opacity:1;" d="M 13.015625 26.308594 L 13.089844 26.457031 L 13.160156 26.605469 C 13.90625 26.617188 14.652344 26.628906 15.394531 26.640625 C 15.597656 26.472656 15.796875 26.304688 16 26.136719 C 15.261719 25.773438 14.523438 25.410156 13.785156 25.050781 L 13.015625 26.308594 "/>
<path style=" stroke:none;fill-rule:nonzero;fill:rgb(21.176471%,19.215687%,27.843139%);fill-opacity:1;" d="M 17.101562 26.613281 L 15.957031 26.132812 C 15.761719 26.285156 15.5625 26.441406 15.363281 26.59375 L 17.101562 26.613281 "/>
<path style=" stroke:none;fill-rule:nonzero;fill:rgb(35.294119%,34.117648%,45.09804%);fill-opacity:1;" d="M 17.601562 26.578125 L 16.480469 25.632812 C 16.3125 25.800781 16.144531 25.96875 15.976562 26.136719 C 16.335938 26.289062 16.691406 26.445312 17.050781 26.597656 L 17.601562 26.578125 "/>
<path style=" stroke:none;fill-rule:nonzero;fill:rgb(33.333334%,29.411766%,33.725491%);fill-opacity:1;" d="M 15.980469 26.140625 L 13.78125 25.054688 C 14.6875 25.25 15.59375 25.445312 16.496094 25.640625 L 15.980469 26.140625 "/>
<path style=" stroke:none;fill-rule:nonzero;fill:rgb(35.686275%,28.627452%,29.019609%);fill-opacity:1;" d="M 17.832031 26.234375 L 17.171875 25.304688 C 16.90625 25.40625 16.644531 25.511719 16.382812 25.613281 C 16.785156 25.933594 17.1875 26.253906 17.59375 26.570312 L 17.832031 26.234375 "/>
<path style=" stroke:none;fill-rule:nonzero;fill:rgb(38.039216%,23.921569%,26.274511%);fill-opacity:1;" d="M 17.839844 26.253906 L 17.503906 25.78125 L 17.167969 25.304688 C 17.179688 25.289062 17.195312 25.269531 17.210938 25.253906 C 17.414062 25.171875 17.621094 25.09375 17.828125 25.011719 L 17.839844 26.253906 "/>
<path style=" stroke:none;fill-rule:nonzero;fill:rgb(27.058825%,25.490198%,32.549021%);fill-opacity:1;" d="M 17.824219 25.03125 L 17.175781 25.308594 L 16.320312 23.238281 L 16.015625 22.675781 L 15.660156 21.808594 L 17.355469 22.328125 L 17.574219 22.558594 L 17.71875 22.871094 L 17.789062 23.128906 L 17.820312 23.988281 L 17.824219 25.03125 "/>
<path style=" stroke:none;fill-rule:nonzero;fill:rgb(92.54902%,69.411767%,40.784314%);fill-opacity:1;" d="M 16.707031 21.589844 L 16.183594 21.699219 L 15.660156 21.8125 C 16.230469 21.988281 16.800781 22.164062 17.371094 22.34375 L 16.707031 21.589844 "/>
<path style=" stroke:none;fill-rule:nonzero;fill:rgb(39.215687%,39.215687%,39.215687%);fill-opacity:1;" d="M 16.410156 25.628906 L 15.660156 21.808594 L 15.988281 22.558594 L 16.289062 23.101562 L 17.183594 25.3125 L 16.410156 25.628906 "/>
<path style=" stroke:none;fill-rule:nonzero;fill:rgb(81.568629%,62.7451%,39.215687%);fill-opacity:1;" d="M 16.691406 21.597656 L 15.664062 21.8125 C 15.765625 21.46875 15.863281 21.125 15.960938 20.78125 L 16.691406 21.597656 "/>
<path style=" stroke:none;fill-rule:nonzero;fill:rgb(35.686275%,28.627452%,29.019609%);fill-opacity:1;" d="M 17.53125 26.441406 L 17.640625 26.558594 L 17.777344 26.519531 C 17.808594 26.429688 17.828125 26.371094 17.835938 26.339844 C 17.84375 26.308594 17.851562 26.273438 17.855469 26.242188 L 17.53125 26.441406 "/>
<path style=" stroke:none;fill-rule:nonzero;fill:rgb(48.235294%,41.960785%,42.352942%);fill-opacity:1;" d="M 16.421875 25.636719 L 15.667969 21.832031 L 15.636719 21.8125 C 15.023438 22.898438 14.40625 23.988281 13.789062 25.074219 L 16.421875 25.636719 "/>
<path style=" stroke:none;fill-rule:nonzero;fill:rgb(45.09804%,23.137255%,25.882354%);fill-opacity:1;" d="M 12.109375 24.261719 L 12.113281 24.132812 C 11.730469 23.957031 11.351562 23.785156 10.96875 23.609375 C 10.960938 23.839844 10.953125 24.070312 10.945312 24.296875 L 12.109375 24.261719 "/>
<path style=" stroke:none;fill-rule:nonzero;fill:rgb(40.000001%,32.549021%,29.803923%);fill-opacity:1;" d="M 13.789062 25.074219 L 13.824219 25.042969 L 12.433594 23.757812 L 12.125 23.796875 L 11.449219 23.214844 L 11.117188 23.6875 L 12.101562 24.195312 L 12.105469 24.261719 L 13.789062 25.074219 "/>
<path style=" stroke:none;fill-rule:nonzero;fill:rgb(39.607844%,36.862746%,34.117648%);fill-opacity:1;" d="M 13.820312 25.027344 L 13.789062 25.074219 L 13.808594 25.074219 L 13.828125 25.050781 L 13.832031 25.042969 L 13.820312 25.027344 "/>
<path style=" stroke:none;fill-rule:nonzero;fill:rgb(39.215687%,22.352941%,20.784314%);fill-opacity:1;" d="M 13.8125 25.039062 L 15.664062 21.8125 C 14.582031 22.464844 13.503906 23.113281 12.421875 23.765625 L 13.8125 25.039062 "/>
<path style=" stroke:none;fill-rule:nonzero;fill:rgb(32.156864%,30.980393%,41.568628%);fill-opacity:1;" d="M 16.003906 26.136719 L 15.976562 26.140625 C 16.160156 26.21875 16.339844 26.292969 16.523438 26.371094 L 16.003906 26.136719 "/>
<path style=" stroke:none;fill-rule:nonzero;fill:rgb(32.156864%,30.980393%,41.568628%);fill-opacity:1;" d="M 16.023438 26.132812 L 15.960938 26.132812 C 16.304688 26.277344 16.644531 26.425781 16.988281 26.570312 L 16.023438 26.132812 "/>
<path style=" stroke:none;fill-rule:nonzero;fill:rgb(51.372552%,37.254903%,30.19608%);fill-opacity:1;" d="M 10.957031 23.617188 L 11.136719 23.691406 C 11.242188 23.542969 11.347656 23.394531 11.457031 23.242188 C 11.296875 23.152344 11.136719 23.058594 10.976562 22.96875 L 10.957031 23.617188 "/>
<path style=" stroke:none;fill-rule:nonzero;fill:rgb(60.392159%,34.509805%,21.960784%);fill-opacity:1;" d="M 11.246094 23.121094 L 11.199219 23.011719 L 12.167969 21.128906 L 11.84375 21.285156 L 10.972656 22.0625 L 10.972656 22.996094 L 11.246094 23.121094 "/>
<path style=" stroke:none;fill-rule:nonzero;fill:rgb(50.196081%,27.843139%,23.529412%);fill-opacity:1;" d="M 11.457031 23.246094 L 11.449219 23.210938 L 12.109375 21.757812 L 12.144531 21.152344 L 11.199219 23.007812 L 11.242188 23.125 L 11.457031 23.246094 "/>
<path style=" stroke:none;fill-rule:nonzero;fill:rgb(53.333336%,29.019609%,25.882354%);fill-opacity:1;" d="M 11.449219 23.246094 L 12.128906 23.808594 C 12.121094 23.125 12.113281 22.4375 12.105469 21.75 C 11.886719 22.238281 11.664062 22.722656 11.445312 23.210938 L 11.449219 23.246094 "/>
<path style=" stroke:none;fill-rule:nonzero;fill:rgb(39.607844%,36.862746%,34.117648%);fill-opacity:1;" d="M 16.40625 25.628906 L 16.417969 25.644531 L 16.425781 25.625 L 16.417969 25.625 L 15.667969 21.808594 L 15.636719 21.8125 L 15.621094 21.835938 L 15.640625 21.835938 L 15.640625 21.855469 L 16.40625 25.628906 "/>
<path style=" stroke:none;fill-rule:nonzero;fill:rgb(47.843137%,21.960784%,22.745098%);fill-opacity:1;" d="M 12.121094 23.804688 L 12.4375 23.773438 L 15.65625 21.820312 L 12.226562 21.128906 L 12.140625 21.140625 L 12.097656 21.761719 L 12.121094 23.804688 "/>
<path style=" stroke:none;fill-rule:nonzero;fill:rgb(47.843137%,21.960784%,22.745098%);fill-opacity:1;" d="M 12.121094 23.796875 L 12.121094 23.804688 C 12.121094 23.808594 12.125 23.808594 12.128906 23.808594 C 12.128906 23.808594 12.132812 23.804688 12.132812 23.804688 L 12.121094 23.796875 "/>
<path style=" stroke:none;fill-rule:nonzero;fill:rgb(63.529414%,47.450981%,28.235295%);fill-opacity:1;" d="M 15.671875 21.820312 L 15.671875 21.777344 L 13.152344 20.445312 L 12.140625 21.144531 L 15.632812 21.839844 L 15.671875 21.820312 "/>
<path style=" stroke:none;fill-rule:nonzero;fill:rgb(92.54902%,69.411767%,40.784314%);fill-opacity:1;" d="M 15.667969 21.820312 L 15.675781 21.777344 L 15.859375 21.167969 L 15.640625 21.148438 L 14.644531 19.308594 L 13.128906 20.464844 L 15.667969 21.820312 "/>
<path style=" stroke:none;fill-rule:nonzero;fill:rgb(92.54902%,69.411767%,40.784314%);fill-opacity:1;" d="M 15.972656 20.773438 L 15.855469 21.175781 L 15.644531 21.15625 L 14.714844 19.445312 L 14.953125 19.636719 L 15.972656 20.773438 "/>
<path style=" stroke:none;fill-rule:nonzero;fill:rgb(82.745099%,54.509807%,33.333334%);fill-opacity:1;" d="M 10.964844 22.078125 L 11.890625 21.292969 C 11.980469 21.246094 12.066406 21.195312 12.152344 21.148438 C 11.761719 20.625 11.375 20.101562 10.984375 19.578125 L 10.964844 22.078125 "/>
<path style=" stroke:none;fill-rule:nonzero;fill:rgb(66.274512%,36.470589%,27.058825%);fill-opacity:1;" d="M 12.132812 21.160156 L 13.191406 20.433594 L 11.757812 17.421875 L 10.992188 18.136719 L 10.996094 19.796875 L 12.132812 21.160156 "/>
<path style=" stroke:none;fill-rule:nonzero;fill:rgb(88.235295%,65.098041%,36.470589%);fill-opacity:1;" d="M 14.640625 19.3125 L 13.136719 20.46875 C 12.675781 19.453125 12.214844 18.441406 11.753906 17.425781 C 12.0625 17.558594 12.371094 17.691406 12.675781 17.820312 L 14.640625 19.3125 "/>
<path style=" stroke:none;fill-rule:nonzero;fill:rgb(60.392159%,43.137255%,28.235295%);fill-opacity:1;" d="M 14.816406 18.59375 L 12.484375 17.734375 L 14.546875 19.253906 L 14.414062 19.046875 L 14.816406 18.59375 "/>
<path style=" stroke:none;fill-rule:nonzero;fill:rgb(79.607844%,44.705883%,29.019609%);fill-opacity:1;" d="M 14.757812 18.605469 L 14.375 16.355469 L 11.757812 17.421875 L 11.753906 17.429688 L 12.511719 17.757812 L 14.757812 18.605469 "/>
<path style=" stroke:none;fill-rule:nonzero;fill:rgb(63.921571%,33.725491%,22.745098%);fill-opacity:1;" d="M 11.003906 18.144531 C 11.253906 17.90625 11.507812 17.667969 11.757812 17.429688 C 11.503906 17.203125 11.253906 16.972656 11 16.746094 L 11.003906 18.144531 "/>
<path style=" stroke:none;fill-rule:nonzero;fill:rgb(83.137256%,56.862748%,34.901962%);fill-opacity:1;" d="M 14.753906 18.605469 L 14.371094 16.355469 C 14.398438 16.347656 14.425781 16.34375 14.453125 16.335938 C 14.941406 16.699219 15.425781 17.0625 15.910156 17.425781 L 14.753906 18.605469 "/>
<path style=" stroke:none;fill-rule:nonzero;fill:rgb(50.196081%,27.843139%,23.529412%);fill-opacity:1;" d="M 11.234375 22.949219 L 11.1875 23.011719 L 11.144531 23.078125 C 11.179688 23.09375 11.21875 23.113281 11.253906 23.128906 L 11.234375 22.949219 "/>
<path style=" stroke:none;fill-rule:nonzero;fill:rgb(83.137256%,56.862748%,34.901962%);fill-opacity:1;" d="M 14.449219 16.347656 L 14.5625 16.300781 L 16.398438 16.308594 L 16.566406 16.390625 L 16.355469 16.882812 L 15.871094 17.453125 L 14.449219 16.347656 "/>
<path style=" stroke:none;fill-rule:nonzero;fill:rgb(52.549022%,36.862746%,23.921569%);fill-opacity:1;" d="M 16.683594 16.515625 L 16.554688 16.386719 C 16.480469 16.554688 16.40625 16.722656 16.332031 16.890625 C 16.382812 16.867188 16.429688 16.839844 16.476562 16.816406 L 16.683594 16.515625 "/>
<path style=" stroke:none;fill-rule:nonzero;fill:rgb(66.666669%,34.901962%,24.313726%);fill-opacity:1;" d="M 11.753906 17.429688 L 12.320312 15.070312 C 11.875 14.875 11.425781 14.675781 10.976562 14.480469 C 10.988281 15.253906 11 16.027344 11.007812 16.800781 L 11.753906 17.429688 "/>
<path style=" stroke:none;fill-rule:nonzero;fill:rgb(72.941178%,42.745098%,21.568628%);fill-opacity:1;" d="M 12.316406 15.074219 L 12.824219 13.164062 L 11.648438 12.652344 L 10.945312 12.886719 L 10.960938 14.484375 L 12.316406 15.074219 "/>
<path style=" stroke:none;fill-rule:nonzero;fill:rgb(64.705884%,45.882353%,26.666668%);fill-opacity:1;" d="M 10.957031 12.902344 L 11.644531 12.667969 L 12.234375 12.082031 L 11.15625 11.535156 L 11.015625 11.714844 L 10.980469 11.957031 L 10.949219 12.445312 L 10.957031 12.902344 "/>
<path style=" stroke:none;fill-rule:nonzero;fill:rgb(56.470591%,44.705883%,30.588236%);fill-opacity:1;" d="M 11.179688 11.558594 L 12.207031 12.097656 L 13.886719 11.464844 L 12.089844 11.425781 L 11.78125 11.421875 L 11.429688 11.429688 L 11.179688 11.558594 "/>
<path style=" stroke:none;fill-rule:nonzero;fill:rgb(93.333334%,77.64706%,47.058824%);fill-opacity:1;" d="M 12.460938 14.523438 L 11.746094 17.441406 C 12.6875 17.0625 13.628906 16.6875 14.574219 16.308594 L 12.460938 14.523438 "/>
<path style=" stroke:none;fill-rule:nonzero;fill:rgb(100%,85.882354%,57.647061%);fill-opacity:1;" d="M 16.433594 16.328125 L 14.875 15.125 L 13.3125 13.921875 C 13.054688 14.148438 12.796875 14.375 12.539062 14.601562 C 13.214844 15.171875 13.890625 15.742188 14.566406 16.3125 L 16.433594 16.328125 "/>
<path style=" stroke:none;fill-rule:nonzero;fill:rgb(59.607846%,53.725493%,40.784314%);fill-opacity:1;" d="M 16.546875 16.382812 L 16.84375 16.175781 L 17.597656 15.527344 L 17.148438 16.074219 L 16.839844 16.375 L 16.734375 16.5 L 16.6875 16.527344 L 16.546875 16.382812 "/>
<path style=" stroke:none;fill-rule:nonzero;fill:rgb(89.019608%,70.588237%,44.705883%);fill-opacity:1;" d="M 12.453125 14.523438 C 12.484375 14.546875 12.515625 14.570312 12.546875 14.597656 C 12.828125 14.351562 13.109375 14.109375 13.390625 13.867188 L 12.824219 13.152344 L 12.453125 14.523438 "/>
<path style=" stroke:none;fill-rule:nonzero;fill:rgb(89.803922%,73.333335%,41.176471%);fill-opacity:1;" d="M 12.46875 14.550781 L 12.457031 14.519531 L 12.3125 15.070312 L 11.910156 16.738281 L 11.925781 16.777344 L 12.355469 15.0625 L 12.566406 14.597656 L 12.511719 14.554688 L 12.46875 14.550781 "/>
<path style=" stroke:none;fill-rule:nonzero;fill:rgb(78.431374%,54.901963%,30.19608%);fill-opacity:1;" d="M 12.207031 12.09375 L 11.640625 12.660156 L 12.824219 13.164062 L 12.207031 12.09375 "/>
<path style=" stroke:none;fill-rule:nonzero;fill:rgb(79.607844%,64.705884%,39.215687%);fill-opacity:1;" d="M 12.203125 12.09375 L 12.808594 13.164062 L 15.242188 12.359375 L 13.988281 11.46875 L 13.828125 11.476562 L 12.203125 12.09375 "/>
<path style=" stroke:none;fill-rule:nonzero;fill:rgb(96.078432%,88.627452%,58.823532%);fill-opacity:1;" d="M 12.796875 13.152344 L 13.089844 13.511719 L 13.382812 13.867188 L 15.246094 12.351562 L 12.796875 13.152344 "/>
<path style=" stroke:none;fill-rule:nonzero;fill:rgb(94.901961%,75.294119%,49.019608%);fill-opacity:1;" d="M 16.421875 16.324219 L 16.546875 16.386719 L 16.609375 16.34375 L 16.375 13.359375 L 15.234375 12.351562 L 13.296875 13.933594 L 16.421875 16.324219 "/>
<path style=" stroke:none;fill-rule:nonzero;fill:rgb(74.117649%,67.450982%,46.27451%);fill-opacity:1;" d="M 16.367188 13.351562 L 16.605469 16.347656 L 17.484375 15.675781 L 17.726562 15.328125 L 17.796875 15 C 17.808594 14.914062 17.820312 14.453125 17.835938 13.628906 L 16.367188 13.351562 "/>
<path style=" stroke:none;fill-rule:nonzero;fill:rgb(74.117649%,67.450982%,46.27451%);fill-opacity:1;" d="M 16.609375 16.332031 L 16.863281 16.195312 C 17 16.074219 17.140625 15.953125 17.28125 15.828125 C 17.140625 15.875 17.003906 15.921875 16.863281 15.964844 L 16.609375 16.332031 "/>
<path style=" stroke:none;fill-rule:nonzero;fill:rgb(85.882354%,74.509805%,48.235294%);fill-opacity:1;" d="M 17.828125 13.648438 L 16.644531 13.050781 C 16.550781 13.152344 16.457031 13.253906 16.363281 13.359375 L 17.828125 13.648438 "/>
<path style=" stroke:none;fill-rule:nonzero;fill:rgb(100%,86.274511%,50.196081%);fill-opacity:1;" d="M 17.824219 13.648438 L 17.230469 13.351562 L 16.640625 13.050781 C 16.808594 12.851562 16.976562 12.648438 17.144531 12.449219 L 17.566406 12.980469 C 17.65625 13.09375 17.75 13.203125 17.84375 13.316406 L 17.824219 13.648438 "/>
<path style=" stroke:none;fill-rule:nonzero;fill:rgb(100%,90.588236%,62.7451%);fill-opacity:1;" d="M 17.851562 13.328125 L 17.136719 12.457031 L 17.757812 11.570312 L 17.867188 11.671875 L 17.863281 11.871094 L 17.894531 12.445312 L 17.847656 12.867188 L 17.851562 13.328125 "/>
<path style=" stroke:none;fill-rule:nonzero;fill:rgb(100%,86.274511%,50.196081%);fill-opacity:1;" d="M 17.148438 12.460938 L 15.238281 12.359375 C 15.617188 12.695312 15.996094 13.03125 16.375 13.367188 L 17.148438 12.460938 "/>
<path style=" stroke:none;fill-rule:nonzero;fill:rgb(96.078432%,88.627452%,58.039218%);fill-opacity:1;" d="M 17.765625 11.582031 L 17.140625 12.464844 C 16.503906 12.429688 15.871094 12.394531 15.238281 12.359375 C 15.785156 12.078125 16.332031 11.792969 16.878906 11.507812 L 17.765625 11.582031 "/>
<path style=" stroke:none;fill-rule:nonzero;fill:rgb(66.666669%,59.215689%,40.392157%);fill-opacity:1;" d="M 16.851562 11.539062 L 15.238281 12.359375 C 14.800781 12.054688 14.367188 11.75 13.933594 11.445312 L 16.851562 11.539062 "/>
<path style=" stroke:none;fill-rule:nonzero;fill:rgb(100%,94.117647%,66.274512%);fill-opacity:1;" d="M 28.457031 13.957031 L 25.808594 13.289062 L 27.148438 11.542969 L 30.027344 11.558594 L 30.464844 11.574219 L 30.613281 11.660156 L 30.488281 11.828125 L 28.457031 13.957031 "/>
<path style=" stroke:none;fill-rule:nonzero;fill:rgb(96.078432%,88.627452%,58.823532%);fill-opacity:1;" d="M 28.433594 13.9375 L 25.820312 13.285156 C 26.1875 14.03125 26.554688 14.777344 26.921875 15.523438 L 28.433594 13.9375 "/>
<path style=" stroke:none;fill-rule:nonzero;fill:rgb(96.078432%,88.627452%,58.039218%);fill-opacity:1;" d="M 23.90625 11.566406 L 25.824219 13.289062 C 26.273438 12.703125 26.726562 12.117188 27.179688 11.53125 L 23.90625 11.566406 "/>
<path style=" stroke:none;fill-rule:nonzero;fill:rgb(94.901961%,79.607844%,49.411765%);fill-opacity:1;" d="M 23.90625 11.605469 L 23.601562 13.199219 L 25.824219 13.292969 L 25.824219 13.285156 L 23.921875 11.570312 L 23.90625 11.605469 "/>
<path style=" stroke:none;fill-rule:nonzero;fill:rgb(96.078432%,88.627452%,58.039218%);fill-opacity:1;" d="M 26.539062 11.515625 L 26.066406 11.804688 C 25.839844 11.824219 25.644531 11.835938 25.484375 11.839844 C 25.34375 11.84375 25.199219 11.835938 25.042969 11.816406 C 24.984375 11.808594 24.925781 11.800781 24.867188 11.789062 C 24.835938 11.785156 24.746094 11.765625 24.597656 11.726562 C 24.445312 11.6875 24.230469 11.625 23.957031 11.535156 L 24.40625 11.441406 L 24.8125 11.511719 L 25.03125 11.472656 L 26.539062 11.515625 "/>
<path style=" stroke:none;fill-rule:nonzero;fill:rgb(92.156863%,70.980394%,42.745098%);fill-opacity:1;" d="M 22.96875 15.558594 L 23.03125 15.347656 C 23.308594 14.40625 23.507812 13.6875 23.628906 13.1875 C 23.742188 12.730469 23.839844 12.191406 23.921875 11.570312 L 23.640625 11.824219 L 21.496094 14.011719 L 22.96875 15.558594 "/>
<path style=" stroke:none;fill-rule:nonzero;fill:rgb(98.039216%,90.588236%,58.431375%);fill-opacity:1;" d="M 22.960938 15.554688 C 23.914062 14.800781 24.871094 14.046875 25.824219 13.292969 C 25.09375 13.261719 24.359375 13.230469 23.625 13.199219 L 22.960938 15.554688 "/>
<path style=" stroke:none;fill-rule:nonzero;fill:rgb(80.392158%,57.254905%,34.509805%);fill-opacity:1;" d="M 22.96875 15.554688 L 19.886719 16.863281 C 20.394531 15.925781 20.902344 14.984375 21.410156 14.046875 C 21.449219 14.035156 21.484375 14.023438 21.523438 14.011719 L 22.96875 15.554688 "/>
<path style=" stroke:none;fill-rule:nonzero;fill:rgb(88.235295%,52.941179%,32.549021%);fill-opacity:1;" d="M 19.898438 16.851562 L 18.601562 16.953125 C 19.410156 16.128906 20.21875 15.304688 21.027344 14.480469 C 21.132812 14.390625 21.238281 14.304688 21.339844 14.214844 L 19.898438 16.851562 "/>
<path style=" stroke:none;fill-rule:nonzero;fill:rgb(100%,86.274511%,50.196081%);fill-opacity:1;" d="M 22.945312 15.546875 L 24.011719 16.441406 L 26.617188 15.820312 L 26.917969 15.492188 L 25.824219 13.28125 L 22.945312 15.546875 "/>
<path style=" stroke:none;fill-rule:nonzero;fill:rgb(91.764706%,76.862746%,44.705883%);fill-opacity:1;" d="M 25.09375 17.375 L 23.996094 16.429688 C 24.875 16.210938 25.753906 15.992188 26.632812 15.773438 L 25.09375 17.375 "/>
<path style=" stroke:none;fill-rule:nonzero;fill:rgb(61.960787%,45.09804%,30.588236%);fill-opacity:1;" d="M 21.777344 18.265625 L 24.132812 18.402344 C 24.460938 18.0625 24.785156 17.722656 25.113281 17.382812 C 24.722656 17.050781 24.332031 16.714844 23.941406 16.378906 L 21.777344 18.265625 "/>
<path style=" stroke:none;fill-rule:nonzero;fill:rgb(85.882354%,71.372551%,37.254903%);fill-opacity:1;" d="M 23.949219 16.386719 L 23.449219 15.964844 L 22.953125 15.546875 C 22.5625 16.453125 22.171875 17.359375 21.777344 18.269531 L 23.949219 16.386719 "/>
<path style=" stroke:none;fill-rule:nonzero;fill:rgb(89.803922%,72.549021%,34.117648%);fill-opacity:1;" d="M 21.789062 18.25 L 19.894531 16.847656 C 20.917969 16.40625 21.945312 15.96875 22.96875 15.527344 L 21.789062 18.25 "/>
<path style=" stroke:none;fill-rule:nonzero;fill:rgb(35.686275%,28.627452%,29.019609%);fill-opacity:1;" d="M 17.800781 26.320312 C 17.824219 26.28125 17.84375 26.238281 17.867188 26.199219 C 17.636719 25.902344 17.40625 25.601562 17.175781 25.304688 C 16.914062 25.414062 16.652344 25.523438 16.390625 25.632812 L 17.800781 26.320312 "/>
<path style=" stroke:none;fill-rule:nonzero;fill:rgb(93.725491%,67.058825%,23.529412%);fill-opacity:1;" d="M 18.972656 18.660156 C 18.878906 18.074219 18.785156 17.488281 18.691406 16.90625 C 19.101562 16.882812 19.507812 16.859375 19.917969 16.839844 L 18.972656 18.660156 "/>
<path style=" stroke:none;fill-rule:nonzero;fill:rgb(93.333334%,51.764709%,27.450982%);fill-opacity:1;" d="M 17.652344 18.867188 L 18.976562 18.710938 C 18.882812 18.09375 18.789062 17.480469 18.695312 16.863281 L 17.652344 18.867188 "/>
<path style=" stroke:none;fill-rule:nonzero;fill:rgb(89.019608%,58.823532%,32.156864%);fill-opacity:1;" d="M 16.546875 19.082031 L 17.667969 18.863281 C 18 18.222656 18.328125 17.585938 18.660156 16.945312 C 18.085938 17.515625 17.507812 18.085938 16.933594 18.660156 L 16.546875 19.082031 "/>
<path style=" stroke:none;fill-rule:nonzero;fill:rgb(77.254903%,40.392157%,25.490198%);fill-opacity:1;" d="M 16.582031 19.070312 L 17.65625 18.851562 L 17.816406 18.84375 L 17.277344 19.828125 L 16.582031 19.070312 "/>
<path style=" stroke:none;fill-rule:nonzero;fill:rgb(76.47059%,34.117648%,23.921569%);fill-opacity:1;" d="M 17.273438 19.796875 L 17.757812 18.925781 L 20.007812 20.992188 L 20.34375 21.476562 L 19.078125 21.640625 L 17.273438 19.796875 "/>
<path style=" stroke:none;fill-rule:nonzero;fill:rgb(67.450982%,30.19608%,23.137255%);fill-opacity:1;" d="M 19.070312 21.644531 L 20.363281 21.46875 C 20.0625 21.660156 19.765625 21.847656 19.46875 22.039062 L 19.070312 21.644531 "/>
<path style=" stroke:none;fill-rule:nonzero;fill:rgb(67.450982%,30.19608%,23.137255%);fill-opacity:1;" d="M 19.179688 21.722656 L 19.054688 21.628906 C 19.472656 21.578125 19.890625 21.53125 20.308594 21.480469 L 19.179688 21.722656 "/>
<path style=" stroke:none;fill-rule:nonzero;fill:rgb(66.274512%,34.901962%,25.882354%);fill-opacity:1;" d="M 20.691406 23.316406 L 20.847656 22.933594 C 20.679688 22.449219 20.511719 21.960938 20.34375 21.476562 C 20.054688 21.660156 19.765625 21.84375 19.472656 22.027344 L 20.691406 23.316406 "/>
<path style=" stroke:none;fill-rule:nonzero;fill:rgb(56.078434%,38.039216%,24.705882%);fill-opacity:1;" d="M 20.6875 23.308594 L 20.835938 22.933594 L 21.921875 21.332031 L 22.90625 24.105469 L 21.726562 24.351562 L 20.6875 23.308594 "/>
<path style=" stroke:none;fill-rule:nonzero;fill:rgb(65.882355%,40.000001%,26.666668%);fill-opacity:1;" d="M 23.96875 26.597656 L 22.898438 24.097656 C 22.507812 24.179688 22.117188 24.265625 21.726562 24.347656 C 22.199219 24.84375 22.675781 25.339844 23.148438 25.839844 L 23.96875 26.597656 "/>
<path style=" stroke:none;fill-rule:nonzero;fill:rgb(65.882355%,40.000001%,26.666668%);fill-opacity:1;" d="M 21.640625 24.292969 L 21.785156 24.460938 C 22.15625 24.339844 22.53125 24.222656 22.902344 24.101562 L 21.640625 24.292969 "/>
<path style=" stroke:none;fill-rule:nonzero;fill:rgb(63.137257%,35.294119%,32.941177%);fill-opacity:1;" d="M 23.929688 26.574219 L 24.3125 26.675781 L 25.425781 24.546875 L 22.890625 24.09375 L 23.835938 26.511719 L 23.929688 26.574219 "/>
<path style=" stroke:none;fill-rule:nonzero;fill:rgb(69.01961%,43.921569%,30.19608%);fill-opacity:1;" d="M 24.320312 26.644531 L 25.425781 24.546875 C 26.007812 25.242188 26.59375 25.9375 27.179688 26.636719 L 24.320312 26.644531 "/>
<path style=" stroke:none;fill-rule:nonzero;fill:rgb(100%,68.627453%,39.215687%);fill-opacity:1;" d="M 27.132812 26.625 L 28.074219 26.628906 L 29.066406 24.851562 L 28.589844 24.398438 L 25.421875 24.546875 L 27.132812 26.625 "/>
<path style=" stroke:none;fill-rule:nonzero;fill:rgb(90.196079%,66.274512%,47.843137%);fill-opacity:1;" d="M 28.050781 26.652344 L 29.042969 24.878906 L 30.476562 26.34375 L 30.585938 26.515625 L 30.535156 26.582031 L 30.359375 26.628906 L 28.050781 26.652344 "/>
<path style=" stroke:none;fill-rule:nonzero;fill:rgb(81.568629%,58.823532%,34.117648%);fill-opacity:1;" d="M 28.617188 24.410156 L 25.425781 24.546875 C 25.859375 23.851562 26.292969 23.15625 26.726562 22.460938 L 28.617188 24.410156 "/>
<path style=" stroke:none;fill-rule:nonzero;fill:rgb(87.450981%,58.823532%,31.764707%);fill-opacity:1;" d="M 26.546875 22.246094 L 24.714844 21.828125 C 24.953125 22.734375 25.1875 23.644531 25.421875 24.550781 C 25.863281 23.84375 26.304688 23.136719 26.746094 22.429688 L 26.546875 22.246094 "/>
<path style=" stroke:none;fill-rule:nonzero;fill:rgb(69.803923%,49.019608%,32.549021%);fill-opacity:1;" d="M 25.421875 24.542969 L 21.925781 21.328125 C 22.25 22.25 22.574219 23.175781 22.898438 24.097656 L 25.421875 24.542969 "/>
<path style=" stroke:none;fill-rule:nonzero;fill:rgb(89.019608%,64.313728%,34.117648%);fill-opacity:1;" d="M 26.5 22.242188 L 24.71875 21.839844 C 24.773438 21.40625 24.828125 20.972656 24.882812 20.539062 L 26.5 22.242188 "/>
<path style=" stroke:none;fill-rule:nonzero;fill:rgb(92.156863%,65.882355%,36.862746%);fill-opacity:1;" d="M 25.425781 24.546875 L 24.726562 21.785156 C 23.792969 21.632812 22.855469 21.480469 21.917969 21.332031 L 25.425781 24.546875 "/>
<path style=" stroke:none;fill-rule:nonzero;fill:rgb(69.803923%,49.019608%,32.549021%);fill-opacity:1;" d="M 21.96875 21.382812 L 21.921875 21.324219 L 21.917969 21.328125 L 22.683594 23.503906 L 22.75 23.5625 L 21.96875 21.382812 "/>
<path style=" stroke:none;fill-rule:nonzero;fill:rgb(83.92157%,61.56863%,35.686275%);fill-opacity:1;" d="M 24.730469 21.804688 L 24.910156 20.550781 L 23.511719 19.089844 L 21.917969 21.335938 L 23.027344 21.5625 L 23.363281 21.570312 L 24.730469 21.804688 "/>
<path style=" stroke:none;fill-rule:nonzero;fill:rgb(65.882355%,34.509805%,21.568628%);fill-opacity:1;" d="M 20.339844 21.472656 L 20.824219 22.960938 C 21.191406 22.417969 21.558594 21.871094 21.925781 21.328125 L 20.339844 21.472656 "/>
<path style=" stroke:none;fill-rule:nonzero;fill:rgb(84.313726%,47.843137%,21.568628%);fill-opacity:1;" d="M 21.925781 21.332031 L 18.96875 18.667969 L 18.972656 18.710938 L 20.101562 21.175781 L 20.332031 21.476562 L 21.925781 21.332031 "/>
<path style=" stroke:none;fill-rule:nonzero;fill:rgb(93.725491%,67.058825%,23.529412%);fill-opacity:1;" d="M 18.875 17.863281 L 18.996094 18.691406 C 18.988281 18.699219 18.980469 18.703125 18.972656 18.710938 C 18.925781 18.4375 18.878906 18.164062 18.832031 17.890625 L 18.875 17.863281 "/>
<path style=" stroke:none;fill-rule:nonzero;fill:rgb(81.568629%,40.000001%,27.450982%);fill-opacity:1;" d="M 20.054688 21.066406 L 18.980469 18.699219 C 18.585938 18.746094 18.191406 18.796875 17.796875 18.84375 L 17.75 18.941406 L 20.054688 21.066406 "/>
<path style=" stroke:none;fill-rule:nonzero;fill:rgb(100%,85.09804%,43.137255%);fill-opacity:1;" d="M 18.984375 18.691406 L 21.789062 18.265625 C 21.792969 18.257812 21.792969 18.253906 21.792969 18.246094 C 21.164062 17.78125 20.53125 17.3125 19.902344 16.847656 L 18.984375 18.691406 "/>
<path style=" stroke:none;fill-rule:nonzero;fill:rgb(97.647059%,80.000001%,30.980393%);fill-opacity:1;" d="M 18.984375 18.691406 L 18.980469 18.628906 C 19.28125 18.046875 19.582031 17.460938 19.886719 16.878906 C 19.667969 17.390625 19.449219 17.902344 19.230469 18.410156 L 18.984375 18.691406 "/>
<path style=" stroke:none;fill-rule:nonzero;fill:rgb(100%,69.803923%,36.078432%);fill-opacity:1;" d="M 21.785156 18.257812 L 21.925781 21.335938 C 20.949219 20.453125 19.96875 19.570312 18.988281 18.6875 L 21.785156 18.257812 "/>
<path style=" stroke:none;fill-rule:nonzero;fill:rgb(79.607844%,58.039218%,32.941177%);fill-opacity:1;" d="M 23.511719 19.109375 L 21.765625 18.253906 C 22.5625 18.296875 23.359375 18.339844 24.15625 18.386719 L 23.511719 19.109375 "/>
<path style=" stroke:none;fill-rule:nonzero;fill:rgb(88.235295%,63.921571%,34.509805%);fill-opacity:1;" d="M 21.921875 21.332031 L 23.5 19.136719 L 23.472656 19.0625 L 21.785156 18.261719 L 21.777344 18.273438 L 21.921875 21.332031 "/>
<path style=" stroke:none;fill-rule:nonzero;fill:rgb(63.137257%,35.294119%,32.941177%);fill-opacity:1;" d="M 25.421875 24.554688 L 25.421875 24.550781 C 25.425781 24.546875 25.425781 24.546875 25.421875 24.542969 C 24.972656 24.460938 24.519531 24.382812 24.070312 24.300781 C 24.078125 24.3125 24.082031 24.320312 24.085938 24.332031 L 25.421875 24.554688 "/>
<path style=" stroke:none;fill-rule:nonzero;fill:rgb(100%,90.588236%,62.7451%);fill-opacity:1;" d="M 17.472656 12.824219 C 17.457031 12.820312 17.441406 12.816406 17.429688 12.816406 C 17.558594 12.976562 17.691406 13.140625 17.824219 13.304688 C 17.824219 13.285156 17.824219 13.269531 17.828125 13.25 L 17.472656 12.824219 "/>
<path style=" stroke:none;fill-rule:nonzero;fill:rgb(42.352942%,40.392157%,40.392157%);fill-opacity:1;" d="M 16.390625 25.632812 L 16.425781 25.621094 C 16.171875 24.351562 15.921875 23.085938 15.671875 21.820312 C 15.660156 21.824219 15.644531 21.832031 15.628906 21.839844 L 16.390625 25.632812 "/>
<path style=" stroke:none;fill-rule:nonzero;fill:rgb(98.039216%,90.588236%,58.431375%);fill-opacity:1;" d="M 23.628906 13.191406 L 23.625 13.203125 C 24.351562 13.234375 25.074219 13.269531 25.796875 13.300781 C 25.800781 13.296875 25.808594 13.292969 25.8125 13.289062 L 23.628906 13.191406 "/>
<path style=" stroke:none;fill-rule:nonzero;fill:rgb(92.54902%,69.411767%,40.784314%);fill-opacity:1;" d="M 15.535156 21.355469 C 15.617188 21.253906 15.703125 21.15625 15.785156 21.058594 C 15.53125 20.671875 15.273438 20.28125 15.015625 19.894531 L 14.839844 20.234375 L 15.535156 21.355469 "/>
<path style=" stroke:none;fill-rule:nonzero;fill:rgb(92.54902%,69.411767%,40.784314%);fill-opacity:1;" d="M 15.371094 20.285156 L 15.25 20.210938 C 15.109375 19.914062 15.015625 19.734375 14.972656 19.671875 C 14.914062 19.589844 14.882812 19.542969 14.871094 19.539062 C 14.851562 19.515625 14.828125 19.496094 14.804688 19.480469 C 14.761719 19.453125 14.714844 19.445312 14.667969 19.453125 C 14.628906 19.457031 14.566406 19.488281 14.480469 19.546875 L 14.96875 20.382812 L 15.371094 20.285156 "/>
<path style=" stroke:none;fill-rule:nonzero;fill:rgb(92.54902%,69.411767%,40.784314%);fill-opacity:1;" d="M 14.628906 19.292969 L 14.09375 19.738281 C 14.152344 19.753906 14.210938 19.765625 14.269531 19.78125 C 14.359375 19.710938 14.449219 19.644531 14.539062 19.574219 L 14.628906 19.292969 "/>
<path style=" stroke:none;fill-rule:nonzero;fill:rgb(35.294119%,34.117648%,45.09804%);fill-opacity:1;" d="M 16.644531 25.828125 L 16.386719 25.628906 C 16.25 25.800781 16.113281 25.972656 15.976562 26.140625 C 16.308594 26.285156 16.636719 26.429688 16.964844 26.574219 L 16.644531 25.828125 "/>
<path style=" stroke:none;fill-rule:nonzero;fill:rgb(100%,100%,100%);fill-opacity:1;" d="M 25.886719 13.214844 L 25.894531 13.222656 C 25.910156 13.246094 25.914062 13.265625 25.914062 13.292969 C 25.910156 13.316406 25.898438 13.335938 25.875 13.355469 C 25.855469 13.371094 25.832031 13.375 25.808594 13.371094 C 25.785156 13.371094 25.761719 13.359375 25.746094 13.335938 C 25.730469 13.316406 25.722656 13.292969 25.726562 13.269531 C 25.730469 13.242188 25.742188 13.222656 25.761719 13.207031 C 25.785156 13.191406 25.804688 13.183594 25.832031 13.1875 C 25.839844 13.1875 25.847656 13.191406 25.855469 13.195312 L 25.867188 13.199219 C 25.871094 13.203125 25.878906 13.207031 25.886719 13.214844 "/>
<path style=" stroke:none;fill-rule:nonzero;fill:rgb(100%,100%,100%);fill-opacity:1;" d="M 26.742188 12.101562 L 26.273438 12.671875 L 25.808594 13.242188 C 25.828125 13.25 25.84375 13.261719 25.863281 13.273438 L 26.742188 12.101562 "/>
<path style=" stroke:none;fill-rule:nonzero;fill:rgb(100%,100%,100%);fill-opacity:1;" d="M 27.503906 13.703125 L 25.847656 13.273438 C 25.847656 13.289062 25.847656 13.304688 25.84375 13.320312 L 27.503906 13.703125 "/>
<path style=" stroke:none;fill-rule:nonzero;fill:rgb(100%,100%,100%);fill-opacity:1;" d="M 26.488281 14.59375 L 26.421875 14.464844 C 26.140625 13.878906 25.949219 13.492188 25.851562 13.308594 C 25.777344 13.164062 25.769531 13.167969 25.820312 13.320312 L 26.488281 14.59375 "/>
<path style=" stroke:none;fill-rule:nonzero;fill:rgb(100%,100%,100%);fill-opacity:1;" d="M 25.027344 13.910156 L 25.40625 13.625 L 25.785156 13.335938 C 25.78125 13.324219 25.777344 13.308594 25.773438 13.296875 L 25.027344 13.910156 "/>
<path style=" stroke:none;fill-rule:nonzero;fill:rgb(100%,100%,100%);fill-opacity:1;" d="M 24.988281 13.253906 C 25.15625 13.265625 25.3125 13.277344 25.457031 13.285156 C 25.550781 13.292969 25.632812 13.296875 25.695312 13.300781 C 25.730469 13.304688 25.757812 13.304688 25.78125 13.304688 C 25.800781 13.304688 25.816406 13.304688 25.828125 13.304688 C 25.851562 13.304688 25.863281 13.300781 25.859375 13.296875 C 25.859375 13.292969 25.835938 13.285156 25.789062 13.269531 L 24.988281 13.253906 "/>
<path style=" stroke:none;fill-rule:nonzero;fill:rgb(100%,100%,100%);fill-opacity:1;" d="M 24.542969 12.125 L 25.765625 13.257812 C 25.78125 13.253906 25.792969 13.246094 25.808594 13.238281 L 24.542969 12.125 "/>
<path style=" stroke:none;fill-rule:nonzero;fill:rgb(69.803923%,49.019608%,32.549021%);fill-opacity:1;" d="M 11.050781 19.039062 C 11.050781 19.074219 11.023438 19.097656 10.992188 19.101562 C 10.960938 19.101562 10.933594 19.074219 10.933594 19.042969 L 10.898438 12.253906 C 10.910156 11.988281 10.914062 11.675781 11.09375 11.515625 C 11.253906 11.375 11.53125 11.367188 11.789062 11.367188 C 11.824219 11.367188 11.859375 11.367188 11.894531 11.367188 L 17.4375 11.445312 C 17.570312 11.445312 17.746094 11.449219 17.84375 11.554688 C 17.933594 11.660156 17.941406 11.855469 17.949219 12.011719 C 17.949219 12.015625 17.949219 12.015625 17.949219 12.015625 L 17.894531 14.734375 C 17.886719 14.910156 17.878906 15.097656 17.8125 15.273438 C 17.746094 15.449219 17.617188 15.609375 17.5 15.761719 C 17.5 15.761719 17.496094 15.761719 17.496094 15.765625 L 14.453125 19.082031 C 14.429688 19.105469 14.394531 19.105469 14.371094 19.085938 C 14.347656 19.0625 14.34375 19.027344 14.367188 19.003906 L 17.410156 15.683594 L 17.40625 15.6875 C 17.527344 15.53125 17.644531 15.386719 17.703125 15.230469 C 17.761719 15.074219 17.769531 14.910156 17.777344 14.730469 L 17.832031 12.015625 L 17.832031 12.019531 C 17.824219 11.839844 17.8125 11.699219 17.753906 11.632812 C 17.699219 11.570312 17.585938 11.566406 17.433594 11.5625 L 11.894531 11.484375 C 11.859375 11.484375 11.824219 11.484375 11.789062 11.484375 C 11.515625 11.484375 11.289062 11.5 11.171875 11.605469 C 11.039062 11.722656 11.027344 11.96875 11.015625 12.257812 L 11.015625 12.253906 L 11.050781 19.039062 L 10.933594 19.039062 C 10.933594 19.007812 10.960938 18.980469 10.992188 18.980469 C 11.023438 18.980469 11.050781 19.007812 11.050781 19.039062 Z M 11.050781 19.039062 "/>
<path style=" stroke:none;fill-rule:nonzero;fill:rgb(69.803923%,49.019608%,32.549021%);fill-opacity:1;" d="M 11.050781 19.042969 C 11.050781 19.007812 11.023438 18.984375 10.992188 18.984375 C 10.960938 18.984375 10.933594 19.007812 10.933594 19.042969 L 10.871094 25.828125 C 10.878906 26.097656 10.886719 26.40625 11.0625 26.566406 C 11.222656 26.707031 11.5 26.71875 11.757812 26.71875 C 11.792969 26.71875 11.828125 26.71875 11.863281 26.71875 L 17.402344 26.664062 L 17.40625 26.664062 C 17.539062 26.664062 17.714844 26.664062 17.8125 26.554688 C 17.90625 26.449219 17.914062 26.257812 17.921875 26.097656 C 17.921875 26.097656 17.921875 26.09375 17.921875 26.09375 L 17.875 23.378906 C 17.871094 23.203125 17.863281 23.015625 17.796875 22.839844 C 17.730469 22.664062 17.605469 22.5 17.484375 22.347656 C 17.484375 22.347656 17.484375 22.347656 17.484375 22.34375 L 14.453125 19.015625 C 14.429688 18.992188 14.394531 18.988281 14.371094 19.011719 C 14.347656 19.035156 14.34375 19.070312 14.367188 19.09375 L 17.394531 22.425781 L 17.394531 22.421875 C 17.515625 22.578125 17.628906 22.722656 17.6875 22.878906 C 17.746094 23.035156 17.75 23.203125 17.757812 23.382812 L 17.757812 23.378906 L 17.804688 26.097656 L 17.804688 26.089844 C 17.792969 26.269531 17.78125 26.410156 17.722656 26.476562 C 17.667969 26.539062 17.554688 26.546875 17.402344 26.546875 L 11.863281 26.601562 C 11.828125 26.601562 11.792969 26.601562 11.757812 26.601562 C 11.484375 26.601562 11.257812 26.585938 11.140625 26.480469 C 11.007812 26.359375 10.996094 26.117188 10.988281 25.824219 L 10.988281 25.828125 L 11.050781 19.042969 L 10.933594 19.042969 C 10.933594 19.074219 10.960938 19.101562 10.992188 19.101562 C 11.023438 19.101562 11.050781 19.074219 11.050781 19.042969 Z M 11.050781 19.042969 "/>
<path style=" stroke:none;fill-rule:nonzero;fill:rgb(69.803923%,49.019608%,32.549021%);fill-opacity:1;" d="M 25.078125 11.542969 L 24.40625 11.535156 C 24.257812 11.535156 24.125 11.535156 24 11.597656 C 23.871094 11.664062 23.746094 11.792969 23.613281 11.933594 L 23.613281 11.9375 L 16.589844 19.078125 C 16.566406 19.101562 16.53125 19.101562 16.507812 19.078125 C 16.484375 19.054688 16.484375 19.019531 16.507812 18.996094 L 23.527344 11.855469 C 23.65625 11.71875 23.796875 11.570312 23.945312 11.492188 C 24.101562 11.417969 24.261719 11.417969 24.40625 11.417969 L 25.078125 11.425781 C 25.113281 11.425781 25.136719 11.453125 25.136719 11.484375 C 25.136719 11.515625 25.109375 11.542969 25.078125 11.542969 Z M 25.078125 11.542969 "/>
<path style=" stroke:none;fill-rule:nonzero;fill:rgb(69.803923%,49.019608%,32.549021%);fill-opacity:1;" d="M 25.046875 26.597656 L 24.375 26.601562 C 24.226562 26.601562 24.09375 26.601562 23.96875 26.539062 C 23.839844 26.472656 23.71875 26.34375 23.582031 26.199219 L 16.589844 19.027344 C 16.566406 19.003906 16.53125 19.003906 16.507812 19.027344 C 16.484375 19.050781 16.484375 19.085938 16.507812 19.109375 L 23.5 26.28125 L 23.496094 26.28125 C 23.625 26.417969 23.765625 26.566406 23.914062 26.640625 C 24.070312 26.71875 24.230469 26.71875 24.375 26.722656 L 25.046875 26.714844 C 25.078125 26.714844 25.105469 26.691406 25.105469 26.65625 C 25.105469 26.625 25.078125 26.597656 25.046875 26.597656 Z M 25.046875 26.597656 "/>
<path style=" stroke:none;fill-rule:nonzero;fill:rgb(69.803923%,49.019608%,32.549021%);fill-opacity:1;" d="M 25.078125 11.425781 L 30.214844 11.488281 L 30.210938 11.488281 C 30.234375 11.484375 30.257812 11.484375 30.28125 11.484375 C 30.3125 11.484375 30.34375 11.488281 30.382812 11.488281 C 30.445312 11.496094 30.558594 11.507812 30.609375 11.554688 C 30.621094 11.5625 30.628906 11.570312 30.632812 11.582031 C 30.640625 11.585938 30.644531 11.597656 30.648438 11.605469 C 30.667969 11.664062 30.636719 11.726562 30.609375 11.765625 C 30.574219 11.824219 30.515625 11.886719 30.460938 11.941406 L 23.523438 19.105469 C 23.5 19.128906 23.464844 19.128906 23.441406 19.105469 C 23.417969 19.082031 23.417969 19.046875 23.4375 19.023438 L 30.375 11.859375 L 30.378906 11.859375 L 30.375 11.859375 C 30.433594 11.800781 30.480469 11.75 30.511719 11.703125 C 30.539062 11.664062 30.535156 11.644531 30.535156 11.644531 C 30.535156 11.644531 30.535156 11.644531 30.535156 11.640625 C 30.515625 11.625 30.449219 11.613281 30.375 11.605469 C 30.339844 11.605469 30.308594 11.601562 30.28125 11.601562 C 30.257812 11.601562 30.238281 11.605469 30.214844 11.605469 C 30.214844 11.605469 30.214844 11.605469 30.210938 11.605469 L 25.078125 11.542969 C 25.046875 11.542969 25.019531 11.515625 25.019531 11.484375 C 25.019531 11.453125 25.046875 11.425781 25.078125 11.425781 Z M 25.078125 11.425781 "/>
<path style=" stroke:none;fill-rule:nonzero;fill:rgb(69.803923%,49.019608%,32.549021%);fill-opacity:1;" d="M 25.046875 26.714844 L 30.183594 26.675781 L 30.179688 26.675781 C 30.203125 26.675781 30.226562 26.675781 30.25 26.675781 C 30.28125 26.675781 30.3125 26.675781 30.351562 26.671875 C 30.414062 26.667969 30.527344 26.65625 30.578125 26.609375 C 30.589844 26.601562 30.597656 26.59375 30.605469 26.582031 C 30.609375 26.574219 30.613281 26.566406 30.617188 26.558594 C 30.636719 26.5 30.605469 26.4375 30.582031 26.398438 C 30.542969 26.339844 30.484375 26.277344 30.429688 26.222656 L 23.523438 19.03125 C 23.5 19.007812 23.464844 19.007812 23.441406 19.027344 C 23.417969 19.050781 23.414062 19.089844 23.4375 19.113281 L 30.347656 26.304688 C 30.402344 26.359375 30.453125 26.414062 30.480469 26.460938 C 30.507812 26.5 30.503906 26.519531 30.503906 26.519531 C 30.484375 26.539062 30.417969 26.550781 30.34375 26.554688 C 30.308594 26.558594 30.277344 26.558594 30.25 26.558594 C 30.226562 26.558594 30.207031 26.558594 30.183594 26.558594 L 25.046875 26.597656 C 25.015625 26.597656 24.988281 26.625 24.988281 26.65625 C 24.988281 26.6875 25.015625 26.714844 25.046875 26.714844 Z M 25.046875 26.714844 "/>
</g>
</svg>
